<?xml version="1.0" encoding="UTF-8"?>
<!DOCTYPE svg PUBLIC "-//W3C//DTD SVG 1.1//EN" "http://www.w3.org/Graphics/SVG/1.1/DTD/svg11.dtd">
<svg xmlns="http://www.w3.org/2000/svg" version="1.1" width="142px" height="143px" style="shape-rendering:geometricPrecision; text-rendering:geometricPrecision; image-rendering:optimizeQuality; fill-rule:evenodd; clip-rule:evenodd" xmlns:xlink="http://www.w3.org/1999/xlink">
<g><path style="opacity:0.964" fill="#040308" d="M 67.5,4.5 C 92.6961,7.50977 110.863,20.5098 122,43.5C 127.382,58.9564 126.382,73.9564 119,88.5C 116.833,90.6667 114.667,92.8333 112.5,95C 105.144,97.9889 100.478,95.6556 98.5,88C 101.465,79.8984 104.298,71.7317 107,63.5C 109.429,33.9256 96.2626,15.4256 67.5,8C 66.3157,6.85453 66.3157,5.68787 67.5,4.5 Z"/></g>
<g><path style="opacity:0.97" fill="#030208" d="M 55.5,24.5 C 62.1738,23.9652 68.5071,25.1319 74.5,28C 78.2027,31.396 79.3694,35.5626 78,40.5C 74.2253,43.8935 69.7253,45.5602 64.5,45.5C 39.6051,44.4162 23.4385,56.0829 16,80.5C 13.9497,88.7131 14.1164,96.8798 16.5,105C 15.9407,107.188 14.6073,107.854 12.5,107C 4.27524,79.4605 10.2752,55.4605 30.5,35C 38.1514,29.6238 46.4848,26.1238 55.5,24.5 Z"/></g>
<g><path style="opacity:0.979" fill="#020105" d="M 67.5,55.5 C 83.8124,55.3167 90.6458,63.3167 88,79.5C 82.4337,89.8678 74.267,92.7011 63.5,88C 52.4569,79.0977 51.7902,69.431 61.5,59C 63.4319,57.5415 65.4319,56.3748 67.5,55.5 Z"/></g>
<g><path style="opacity:0.972" fill="#030207" d="M 38.5,88.5 C 41.2706,88.4207 43.9373,88.9207 46.5,90C 51.046,94.8774 55.2127,100.044 59,105.5C 84.314,124.316 107.481,121.816 128.5,98C 130.237,97.3877 131.237,98.0543 131.5,100C 124.965,112.526 114.965,121.193 101.5,126C 75.9699,136.58 54.4699,131.413 37,110.5C 32.4588,104.553 31.6255,98.2194 34.5,91.5C 35.9014,90.4793 37.2347,89.4793 38.5,88.5 Z"/></g>
</svg>
